# xmcd
#
# Track frame offsets:
#	150
#	15946
#	31242
#	48904
#	62192
#	75592
#	89238
#	102987
#	118701
#	132050
#	146172
#	159406
#	177405
#
# Disc length: 2585 seconds
#
# Revision: 1
# Processed by: cddbd v1.5.1PL0 Copyright (c) Steve Scherf et al.
# Submitted via: audiograbber 1.83.01
#
DISCID=a90a170d
DTITLE=TULIO E TIAGO - APARPA
DYEAR=2004
DGENRE=SERTANEJA
TTITLE0=MAS VOCÊ NÃO LIGA
TTITLE1=DO BRASIL A ARGENTINA
TTITLE2=ESSE AMOR QUE ME MATA
TTITLE3=SEI NAO
TTITLE4=TADIM TADIM
TTITLE5=MENSAGEM DE CELULAR
TTITLE6=COM TODO MENOS COMIGO
TTITLE7=TÁ COMBINADO ASSIM
TTITLE8=APARPÁ
TTITLE9=BEM AOS OLHOS DA LUA
TTITLE10=AINDA TE AMO
TTITLE11=MANDE A SOLIDÃO PRA OUTRO LUGAR
TTITLE12=PRESENTE IDEAL
EXTD=
EXTT0=
EXTT1=
EXTT2=
EXTT3=
EXTT4=
EXTT5=
EXTT6=
EXTT7=
EXTT8=
EXTT9=
EXTT10=
EXTT11=
EXTT12=
PLAYORDER=
